<svg width="64" height="86" viewBox="0 0 64 86" fill="none" xmlns="http://www.w3.org/2000/svg">
<g id="Group 46063">
<g id="Group 46018">
<g id="Group 46002">
<g id="Group 46001">
<g id="Group 46000">
<path id="Vector 2" d="M27.878 84H14.1606C7.53321 84 2.16064 78.6274 2.16064 72L2.16064 20.5442C2.16064 13.9167 7.53323 8.54416 14.1606 8.54416L48.592 8.54416C55.2195 8.54416 60.592 13.9167 60.592 20.5442L60.592 72C60.592 78.6274 55.2195 84 48.592 84H33.3619" stroke="#4AB9B9" stroke-width="3" stroke-linecap="round"/>
</g>
<path id="Rectangle 1573" d="M3.89282 20.2758C3.89282 14.7529 8.36998 10.2758 13.8928 10.2758H14.3008C15.4054 10.2758 16.3008 11.1712 16.3008 12.2758V21.2609C16.3008 22.3655 15.4054 23.2609 14.3008 23.2609H5.89282C4.78825 23.2609 3.89282 22.3655 3.89282 21.2609V20.2758Z" fill="#86D1D1"/>
<rect id="Rectangle 1574" x="18.0312" y="10.2758" width="12.408" height="12.9851" rx="2" fill="#86D1D1"/>
<path id="Rectangle 1576" d="M46.3096 12.2758C46.3096 11.1712 47.205 10.2758 48.3096 10.2758H48.7176C54.2404 10.2758 58.7176 14.7529 58.7176 20.2758V21.2609C58.7176 22.3655 57.8221 23.2609 56.7176 23.2609H48.3096C47.205 23.2609 46.3096 22.3655 46.3096 21.2609V12.2758Z" fill="#86D1D1"/>
<rect id="Rectangle 1575" x="32.1704" y="10.2758" width="12.408" height="12.9851" rx="2" fill="#86D1D1"/>
<rect id="Rectangle 1577" x="3.89282" y="24.9926" width="12.408" height="12.9851" rx="2" fill="#86D1D1"/>
<rect id="Rectangle 1578" x="18.0312" y="24.9926" width="12.408" height="12.9851" rx="2" fill="#86D1D1"/>
<rect id="Rectangle 1579" x="46.3096" y="24.9926" width="12.408" height="12.9851" rx="2" fill="#86D1D1"/>
<rect id="Rectangle 1580" x="32.1704" y="24.9926" width="12.408" height="12.9851" rx="2" fill="#86D1D1"/>
<path id="Rectangle 1589" d="M3.89282 71.1395C3.89282 70.0349 4.78825 69.1395 5.89282 69.1395H14.3008C15.4054 69.1395 16.3008 70.0349 16.3008 71.1395V80.1246C16.3008 81.2292 15.4054 82.1246 14.3008 82.1246H13.8928C8.36998 82.1246 3.89282 77.6475 3.89282 72.1246V71.1395Z" fill="#86D1D1"/>
<rect id="Rectangle 1590" x="18.0312" y="69.1395" width="12.408" height="12.9851" rx="2" fill="#86D1D1"/>
<path id="Rectangle 1591" d="M46.3096 71.1395C46.3096 70.0349 47.205 69.1395 48.3096 69.1395H56.7176C57.8221 69.1395 58.7176 70.0349 58.7176 71.1395V72.1246C58.7176 77.6475 54.2404 82.1246 48.7176 82.1246H48.3096C47.205 82.1246 46.3096 81.2292 46.3096 80.1246V71.1395Z" fill="#86D1D1"/>
<rect id="Rectangle 1592" x="32.1704" y="69.1395" width="12.408" height="12.9851" rx="2" fill="#86D1D1"/>
<rect id="Rectangle 1585" x="3.89282" y="54.4236" width="12.408" height="12.9851" rx="2" fill="#86D1D1"/>
<rect id="Rectangle 1586" x="18.0312" y="54.4236" width="12.408" height="12.9851" rx="2" fill="#86D1D1"/>
<rect id="Rectangle 1587" x="46.3096" y="54.4236" width="12.408" height="12.9851" rx="2" fill="#86D1D1"/>
<rect id="Rectangle 1588" x="32.1704" y="54.4236" width="12.408" height="12.9851" rx="2" fill="#86D1D1"/>
<rect id="Rectangle 1581" x="3.89282" y="39.7076" width="12.408" height="12.9851" rx="2" fill="#86D1D1"/>
<rect id="Rectangle 1582" x="18.0312" y="39.7076" width="12.408" height="12.9851" rx="2" fill="#86D1D1"/>
<rect id="Rectangle 1583" x="46.3096" y="39.7076" width="12.408" height="12.9851" rx="2" fill="#86D1D1"/>
<rect id="Rectangle 1584" x="32.1704" y="39.7076" width="12.408" height="12.9851" rx="2" fill="#86D1D1"/>
</g>
</g>
<line id="Line 139" x1="32.6819" y1="2.5" x2="32.6819" y2="4.14353" stroke="#FCB814" stroke-width="3" stroke-linecap="round"/>
<line id="Line 140" x1="47.3539" y1="2.91677" x2="46.9285" y2="4.5043" stroke="#FCB814" stroke-width="3" stroke-linecap="round"/>
<line id="Line 142" x1="61.9128" y1="3.36056" x2="61.091" y2="4.7839" stroke="#FCB814" stroke-width="3" stroke-linecap="round"/>
<line id="Line 141" x1="17.9074" y1="2.14031" x2="18.3328" y2="3.72784" stroke="#FCB814" stroke-width="3" stroke-linecap="round"/>
<line id="Line 143" x1="3.04904" y1="1.86056" x2="3.8708" y2="3.2839" stroke="#FCB814" stroke-width="3" stroke-linecap="round"/>
</g>
<path id="flash_on" d="M28.6053 77.3745V50.5054H24.0044V10.2018H39.3406L36.2734 33.7122H42.4079L28.6053 77.3745Z" fill="#FCB814"/>
</g>
</svg>
