<svg width="963" height="267" viewBox="0 0 963 267" fill="none" xmlns="http://www.w3.org/2000/svg">
<g clip-path="url(#clip0_6098_42029)">
<path d="M-6.97487e-07 194.171L-2.97717e-07 96.1125C-1.3186e-07 55.4299 32.8786 23.0862 73.5841 23.0862L73.5841 43.0272C43.9389 43.0272 19.9448 67.0168 19.9448 96.6564L19.9448 111.204L71.9673 111.204L71.9673 131.024L19.9448 131.024L19.9448 194.186L-6.97548e-07 194.186L-6.97487e-07 194.171Z" fill="white"/>
<path d="M562.291 15.3364L562.291 121.688C562.291 162.386 529.412 195.53 488.707 195.53C448.001 195.53 414.851 162.386 414.851 121.688C414.851 80.9906 448.001 48.1182 488.707 48.1182C509.724 48.1182 528.868 57.0161 542.346 71.2921L542.346 15.3364L562.291 15.3364ZM488.707 68.0592C459.062 68.0592 434.796 92.0488 434.796 121.688C434.796 151.328 459.047 175.589 488.707 175.589C518.367 175.589 542.346 151.343 542.346 121.688C542.346 92.0337 518.352 68.0592 488.707 68.0592Z" fill="white"/>
<path d="M650.426 111.204L723.194 111.204C723.466 114.437 723.738 117.942 723.738 121.175C723.738 161.872 690.859 195.53 650.154 195.53C609.448 195.53 576.298 162.386 576.298 121.688C576.298 80.9906 609.448 48.1182 650.154 48.1182C680.071 48.1182 705.939 65.8989 717.543 91.7768L694.908 91.7768C685.208 77.5009 668.769 68.0592 650.169 68.0592C620.524 68.0592 596.257 92.0488 596.257 121.688C596.257 151.328 620.508 175.589 650.169 175.589C676.308 175.589 698.142 156.207 702.992 131.145L650.426 131.145L650.426 111.204Z" fill="white"/>
<path d="M235.801 131.024L235.801 121.794C235.801 79.2835 205.189 48.1182 160.978 48.1182C116.767 48.1182 87.0015 79.2835 87.0015 121.794C87.0015 164.305 116.752 195.47 160.978 195.47C193.57 195.47 219.075 178.747 229.848 152.688L206.353 152.688C196.849 167.643 177.69 175.589 160.933 175.589C134.023 175.589 115.423 159.516 108.472 131.024L235.786 131.024L235.801 131.024ZM160.948 68.0592C187.299 68.0592 206.836 82.3502 213.772 111.204L108.487 111.204C115.423 82.7128 134.567 68.0592 160.948 68.0592Z" fill="white"/>
<path d="M925.074 147.536C938.434 147.536 949.265 136.708 949.265 123.35C949.265 109.993 938.434 99.1641 925.074 99.1641C911.714 99.1641 900.884 109.993 900.884 123.35C900.884 136.708 911.714 147.536 925.074 147.536Z" fill="#FBBA00"/>
<path d="M399.394 131.024L399.394 121.794C399.394 79.4346 368.978 48.3297 324.994 48.1333L324.994 68.0743C351.103 68.2405 370.444 82.5315 377.349 111.204L324.994 111.204L324.994 131.024L399.394 131.024Z" fill="#97D2D4"/>
<path d="M393.44 152.688L369.945 152.688C360.516 167.507 341.644 175.423 324.994 175.574L324.994 195.47C357.389 195.319 382.713 178.641 393.44 152.688Z" fill="#97D2D4"/>
<path d="M300.501 193.068C268.015 182.176 248.615 155.739 248.615 122.338C248.615 92.3963 265.492 65.9442 292.674 53.3149L302.239 73.8904C283.17 82.7581 271.309 101.309 271.309 122.338C271.309 145.859 284.575 163.791 307.708 171.541L300.486 193.053L300.501 193.068Z" fill="#FBBA00"/>
<path d="M865.3 175.514C863.94 204.202 840.309 226.817 811.525 226.817L811.525 246.758C852.23 246.758 885.169 213.613 885.169 172.916L885.169 49.7346L865.225 49.7346L865.225 121.688C865.225 151.328 841.23 175.589 811.585 175.589C781.94 175.589 757.674 151.6 757.674 121.688L757.674 49.7346L737.729 49.7346L737.729 121.688C737.729 162.386 770.88 195.53 811.585 195.53C832.603 195.53 851.747 186.633 865.225 172.357L865.3 175.529L865.3 175.514Z" fill="white"/>
</g>
<defs>
<clipPath id="clip0_6098_42029">
<rect width="949.265" height="231.436" fill="white" transform="translate(0 15.3364)"/>
</clipPath>
</defs>
</svg>
