<svg width="30" height="37" viewBox="0 0 30 37" fill="none" xmlns="http://www.w3.org/2000/svg">
<path d="M18.5 35.1427H19.1834H26.9998C28.1043 35.1427 28.9998 34.2473 28.9998 33.1427L28.9998 11.0164C28.9998 9.91185 28.1043 9.01642 26.9998 9.01642L10.9027 9.01642C9.79818 9.01642 8.90275 9.91185 8.90275 11.0164L8.90275 33.1427C8.90275 34.2473 9.79818 35.1427 10.9027 35.1427H18.5Z" fill="#DDDDDD"/>
<path d="M19.1834 35.1427H10.9027C9.79818 35.1427 8.90275 34.2473 8.90275 33.1427L8.90275 11.0164C8.90275 9.91185 9.79818 9.01642 10.9027 9.01642L26.9998 9.01642C28.1043 9.01642 28.9998 9.91185 28.9998 11.0164L28.9998 33.1427C28.9998 34.2473 28.1043 35.1427 26.9998 35.1427H18.5" stroke="#F64C3C" stroke-width="2" stroke-linecap="round"/>
<path d="M11 12C11 11.4477 11.4477 11 12 11H14.2675C14.8198 11 15.2675 11.4477 15.2675 12V14.4959C15.2675 15.0482 14.8198 15.4959 14.2675 15.4959H12C11.4477 15.4959 11 15.0482 11 14.4959V12Z" fill="#9C9C9C"/>
<path d="M23 12C23 11.4477 23.4477 11 24 11H26.2675C26.8198 11 27.2675 11.4477 27.2675 12V14.4959C27.2675 15.0482 26.8198 15.4959 26.2675 15.4959H24C23.4477 15.4959 23 15.0482 23 14.4959V12Z" fill="#9C9C9C"/>
<path d="M17 12C17 11.4477 17.4477 11 18 11H20.2675C20.8198 11 21.2675 11.4477 21.2675 12V14.4959C21.2675 15.0482 20.8198 15.4959 20.2675 15.4959H18C17.4477 15.4959 17 15.0482 17 14.4959V12Z" fill="#9C9C9C"/>
<path d="M11 18C11 17.4477 11.4477 17 12 17H14.2675C14.8198 17 15.2675 17.4477 15.2675 18V20.4959C15.2675 21.0482 14.8198 21.4959 14.2675 21.4959H12C11.4477 21.4959 11 21.0482 11 20.4959V18Z" fill="#9C9C9C"/>
<path d="M23 18C23 17.4477 23.4477 17 24 17H26.2675C26.8198 17 27.2675 17.4477 27.2675 18V20.4959C27.2675 21.0482 26.8198 21.4959 26.2675 21.4959H24C23.4477 21.4959 23 21.0482 23 20.4959V18Z" fill="#9C9C9C"/>
<path d="M17 18C17 17.4477 17.4477 17 18 17H20.2675C20.8198 17 21.2675 17.4477 21.2675 18V20.4959C21.2675 21.0482 20.8198 21.4959 20.2675 21.4959H18C17.4477 21.4959 17 21.0482 17 20.4959V18Z" fill="#9C9C9C"/>
<path d="M11 24C11 23.4477 11.4477 23 12 23H14.2675C14.8198 23 15.2675 23.4477 15.2675 24V26.4959C15.2675 27.0482 14.8198 27.4959 14.2675 27.4959H12C11.4477 27.4959 11 27.0482 11 26.4959V24Z" fill="#9C9C9C"/>
<path d="M23 24C23 23.4477 23.4477 23 24 23H26.2675C26.8198 23 27.2675 23.4477 27.2675 24V26.4959C27.2675 27.0482 26.8198 27.4959 26.2675 27.4959H24C23.4477 27.4959 23 27.0482 23 26.4959V24Z" fill="#9C9C9C"/>
<path d="M17 24C17 23.4477 17.4477 23 18 23H20.2675C20.8198 23 21.2675 23.4477 21.2675 24V26.4959C21.2675 27.0482 20.8198 27.4959 20.2675 27.4959H18C17.4477 27.4959 17 27.0482 17 26.4959V24Z" fill="#9C9C9C"/>
<path d="M11 30C11 29.4477 11.4477 29 12 29H14.2675C14.8198 29 15.2675 29.4477 15.2675 30V32.4959C15.2675 33.0482 14.8198 33.4959 14.2675 33.4959H12C11.4477 33.4959 11 33.0482 11 32.4959V30Z" fill="#9C9C9C"/>
<path d="M23 30C23 29.4477 23.4477 29 24 29H26.2675C26.8198 29 27.2675 29.4477 27.2675 30V32.4959C27.2675 33.0482 26.8198 33.4959 26.2675 33.4959H24C23.4477 33.4959 23 33.0482 23 32.4959V30Z" fill="#9C9C9C"/>
<path d="M17 30C17 29.4477 17.4477 29 18 29H20.2675C20.8198 29 21.2675 29.4477 21.2675 30V32.4959C21.2675 33.0482 20.8198 33.4959 20.2675 33.4959H18C17.4477 33.4959 17 33.0482 17 32.4959V30Z" fill="#9C9C9C"/>
<path d="M8.06246 17.2317L8.06246 12.9633L8.22055 11.2244L8.8529 9.3273L9.01099 9.3273L9.95952 8.31471L10.908 8.31471L12.0147 8.22069L13.7536 8.22069L16.283 8.31471L16.9843 4.29064L13.0422 8.0626L9.7875 2.19189L9.48525 8.69495L4.38142 6.84221L7.91521 12.2721L3.64617 15.2235L8.06246 17.2317Z" fill="#F64C3C" stroke="#F64C3C"/>
</svg>
