<svg width="31" height="37" viewBox="0 0 31 37" fill="none" xmlns="http://www.w3.org/2000/svg">
<path d="M12.1836 35.1427H3.90299C2.79842 35.1427 1.90299 34.2473 1.90299 33.1427L1.90299 11.0164C1.90299 9.91185 2.79842 9.01642 3.90299 9.01642L20 9.01642C21.1046 9.01642 22 9.91185 22 11.0164L22 33.1427C22 34.2473 21.1046 35.1427 20 35.1427H11.5002" stroke="#F64C3C" stroke-width="2" stroke-linecap="round"/>
<path d="M4 12C4 11.4477 4.44772 11 5 11H7.26751C7.8198 11 8.26751 11.4477 8.26751 12V14.4959C8.26751 15.0482 7.8198 15.4959 7.26751 15.4959H5C4.44772 15.4959 4 15.0482 4 14.4959V12Z" fill="#9C9C9C"/>
<path d="M16 12C16 11.4477 16.4477 11 17 11H19.2675C19.8198 11 20.2675 11.4477 20.2675 12V14.4959C20.2675 15.0482 19.8198 15.4959 19.2675 15.4959H17C16.4477 15.4959 16 15.0482 16 14.4959V12Z" fill="#9C9C9C"/>
<path d="M10 12C10 11.4477 10.4477 11 11 11H13.2675C13.8198 11 14.2675 11.4477 14.2675 12V14.4959C14.2675 15.0482 13.8198 15.4959 13.2675 15.4959H11C10.4477 15.4959 10 15.0482 10 14.4959V12Z" fill="#9C9C9C"/>
<path d="M4 18C4 17.4477 4.44772 17 5 17H7.26751C7.8198 17 8.26751 17.4477 8.26751 18V20.4959C8.26751 21.0482 7.8198 21.4959 7.26751 21.4959H5C4.44772 21.4959 4 21.0482 4 20.4959V18Z" fill="#9C9C9C"/>
<path d="M16 18C16 17.4477 16.4477 17 17 17H19.2675C19.8198 17 20.2675 17.4477 20.2675 18V20.4959C20.2675 21.0482 19.8198 21.4959 19.2675 21.4959H17C16.4477 21.4959 16 21.0482 16 20.4959V18Z" fill="#9C9C9C"/>
<path d="M10 18C10 17.4477 10.4477 17 11 17H13.2675C13.8198 17 14.2675 17.4477 14.2675 18V20.4959C14.2675 21.0482 13.8198 21.4959 13.2675 21.4959H11C10.4477 21.4959 10 21.0482 10 20.4959V18Z" fill="#9C9C9C"/>
<path d="M4 24C4 23.4477 4.44772 23 5 23H7.26751C7.8198 23 8.26751 23.4477 8.26751 24V26.4959C8.26751 27.0482 7.8198 27.4959 7.26751 27.4959H5C4.44772 27.4959 4 27.0482 4 26.4959V24Z" fill="#9C9C9C"/>
<path d="M16 24C16 23.4477 16.4477 23 17 23H19.2675C19.8198 23 20.2675 23.4477 20.2675 24V26.4959C20.2675 27.0482 19.8198 27.4959 19.2675 27.4959H17C16.4477 27.4959 16 27.0482 16 26.4959V24Z" fill="#9C9C9C"/>
<path d="M10 24C10 23.4477 10.4477 23 11 23H13.2675C13.8198 23 14.2675 23.4477 14.2675 24V26.4959C14.2675 27.0482 13.8198 27.4959 13.2675 27.4959H11C10.4477 27.4959 10 27.0482 10 26.4959V24Z" fill="#9C9C9C"/>
<path d="M4 30C4 29.4477 4.44772 29 5 29H7.26751C7.8198 29 8.26751 29.4477 8.26751 30V32.4959C8.26751 33.0482 7.8198 33.4959 7.26751 33.4959H5C4.44772 33.4959 4 33.0482 4 32.4959V30Z" fill="#9C9C9C"/>
<path d="M16 30C16 29.4477 16.4477 29 17 29H19.2675C19.8198 29 20.2675 29.4477 20.2675 30V32.4959C20.2675 33.0482 19.8198 33.4959 19.2675 33.4959H17C16.4477 33.4959 16 33.0482 16 32.4959V30Z" fill="#9C9C9C"/>
<path d="M10 30C10 29.4477 10.4477 29 11 29H13.2675C13.8198 29 14.2675 29.4477 14.2675 30V32.4959C14.2675 33.0482 13.8198 33.4959 13.2675 33.4959H11C10.4477 33.4959 10 33.0482 10 32.4959V30Z" fill="#9C9C9C"/>
<path d="M13.3534 8.44525L17.6192 8.29652L19.3626 8.39391L21.2805 8.95978L21.286 9.11777L22.331 10.0304L22.3641 10.9784L22.4966 12.081L22.5572 13.819L22.5514 16.3501L26.5975 16.9108L22.6904 13.1024L28.4442 9.64517L21.9345 9.56971L23.6083 4.40442L18.3048 8.12527L15.2064 3.96167L13.3534 8.44525Z" fill="#F64C3C" stroke="#F64C3C"/>
</svg>
