<svg width="30" height="37" viewBox="0 0 30 37" fill="none" xmlns="http://www.w3.org/2000/svg">
<path d="M19.1836 35.1427H10.903C9.79842 35.1427 8.90299 34.2473 8.90299 33.1427L8.90299 11.0164C8.90299 9.91185 9.79842 9.01642 10.903 9.01642L27 9.01642C28.1046 9.01642 29 9.91185 29 11.0164L29 33.1427C29 34.2473 28.1046 35.1427 27 35.1427H18.5002" stroke="#DDDDDD" stroke-width="2" stroke-linecap="round"/>
<path d="M11 12C11 11.4477 11.4477 11 12 11H14.2675C14.8198 11 15.2675 11.4477 15.2675 12V14.4959C15.2675 15.0482 14.8198 15.4959 14.2675 15.4959H12C11.4477 15.4959 11 15.0482 11 14.4959V12Z" fill="#6B6B6B"/>
<path d="M23 12C23 11.4477 23.4477 11 24 11H26.2675C26.8198 11 27.2675 11.4477 27.2675 12V14.4959C27.2675 15.0482 26.8198 15.4959 26.2675 15.4959H24C23.4477 15.4959 23 15.0482 23 14.4959V12Z" fill="#6B6B6B"/>
<path d="M17 12C17 11.4477 17.4477 11 18 11H20.2675C20.8198 11 21.2675 11.4477 21.2675 12V14.4959C21.2675 15.0482 20.8198 15.4959 20.2675 15.4959H18C17.4477 15.4959 17 15.0482 17 14.4959V12Z" fill="#6B6B6B"/>
<path d="M11 18C11 17.4477 11.4477 17 12 17H14.2675C14.8198 17 15.2675 17.4477 15.2675 18V20.4959C15.2675 21.0482 14.8198 21.4959 14.2675 21.4959H12C11.4477 21.4959 11 21.0482 11 20.4959V18Z" fill="#6B6B6B"/>
<path d="M23 18C23 17.4477 23.4477 17 24 17H26.2675C26.8198 17 27.2675 17.4477 27.2675 18V20.4959C27.2675 21.0482 26.8198 21.4959 26.2675 21.4959H24C23.4477 21.4959 23 21.0482 23 20.4959V18Z" fill="#6B6B6B"/>
<path d="M17 18C17 17.4477 17.4477 17 18 17H20.2675C20.8198 17 21.2675 17.4477 21.2675 18V20.4959C21.2675 21.0482 20.8198 21.4959 20.2675 21.4959H18C17.4477 21.4959 17 21.0482 17 20.4959V18Z" fill="#6B6B6B"/>
<path d="M8.06246 17.2317L8.06246 12.9633L8.22055 11.2244L8.8529 9.3273L9.01099 9.3273L9.95952 8.31471L10.908 8.31471L12.0147 8.22069L13.7536 8.22069L16.283 8.31471L16.9843 4.29064L13.0422 8.0626L9.7875 2.19189L9.48525 8.69495L4.38142 6.84221L7.91521 12.2721L3.64617 15.2235L8.06246 17.2317Z" fill="#DDDDDD" stroke="#DDDDDD"/>
</svg>
