<svg width="31" height="37" viewBox="0 0 31 37" fill="none" xmlns="http://www.w3.org/2000/svg">
<path d="M11.2808 27.1263H3.00016C1.89559 27.1263 1.00016 26.2309 1.00016 25.1263L1.00016 3C1.00016 1.89543 1.89559 1 3.00016 1L19.0972 1C20.2017 1 21.0972 1.89543 21.0972 3L21.0972 25.1263C21.0972 26.2309 20.2017 27.1263 19.0972 27.1263L10.5974 27.1263" stroke="#F64C3C" stroke-width="2" stroke-linecap="round"/>
<path d="M3.09717 3.98358C3.09717 3.4313 3.54488 2.98358 4.09717 2.98358H6.36468C6.91697 2.98358 7.36468 3.4313 7.36468 3.98358V6.47951C7.36468 7.03179 6.91697 7.47951 6.36468 7.47951H4.09717C3.54488 7.47951 3.09717 7.03179 3.09717 6.47951V3.98358Z" fill="#9C9C9C"/>
<path d="M15.0972 3.98358C15.0972 3.4313 15.5449 2.98358 16.0972 2.98358H18.3647C18.917 2.98358 19.3647 3.4313 19.3647 3.98358V6.47951C19.3647 7.03179 18.917 7.47951 18.3647 7.47951H16.0972C15.5449 7.47951 15.0972 7.03179 15.0972 6.47951V3.98358Z" fill="#9C9C9C"/>
<path d="M9.09717 3.98358C9.09717 3.4313 9.54488 2.98358 10.0972 2.98358H12.3647C12.917 2.98358 13.3647 3.4313 13.3647 3.98358V6.47951C13.3647 7.03179 12.917 7.47951 12.3647 7.47951H10.0972C9.54488 7.47951 9.09717 7.03179 9.09717 6.47951V3.98358Z" fill="#9C9C9C"/>
<path d="M3.09717 9.98358C3.09717 9.4313 3.54488 8.98358 4.09717 8.98358H6.36468C6.91697 8.98358 7.36468 9.4313 7.36468 9.98358V12.4795C7.36468 13.0318 6.91697 13.4795 6.36468 13.4795H4.09717C3.54488 13.4795 3.09717 13.0318 3.09717 12.4795V9.98358Z" fill="#9C9C9C"/>
<path d="M15.0972 9.98358C15.0972 9.4313 15.5449 8.98358 16.0972 8.98358H18.3647C18.917 8.98358 19.3647 9.4313 19.3647 9.98358V12.4795C19.3647 13.0318 18.917 13.4795 18.3647 13.4795H16.0972C15.5449 13.4795 15.0972 13.0318 15.0972 12.4795V9.98358Z" fill="#9C9C9C"/>
<path d="M9.09717 9.98358C9.09717 9.4313 9.54488 8.98358 10.0972 8.98358H12.3647C12.917 8.98358 13.3647 9.4313 13.3647 9.98358V12.4795C13.3647 13.0318 12.917 13.4795 12.3647 13.4795H10.0972C9.54488 13.4795 9.09717 13.0318 9.09717 12.4795V9.98358Z" fill="#9C9C9C"/>
<path d="M3.09717 15.9836C3.09717 15.4313 3.54488 14.9836 4.09717 14.9836H6.36468C6.91697 14.9836 7.36468 15.4313 7.36468 15.9836V18.4795C7.36468 19.0318 6.91697 19.4795 6.36468 19.4795H4.09717C3.54488 19.4795 3.09717 19.0318 3.09717 18.4795V15.9836Z" fill="#9C9C9C"/>
<path d="M15.0972 15.9836C15.0972 15.4313 15.5449 14.9836 16.0972 14.9836H18.3647C18.917 14.9836 19.3647 15.4313 19.3647 15.9836V18.4795C19.3647 19.0318 18.917 19.4795 18.3647 19.4795H16.0972C15.5449 19.4795 15.0972 19.0318 15.0972 18.4795V15.9836Z" fill="#9C9C9C"/>
<path d="M9.09717 15.9836C9.09717 15.4313 9.54488 14.9836 10.0972 14.9836H12.3647C12.917 14.9836 13.3647 15.4313 13.3647 15.9836V18.4795C13.3647 19.0318 12.917 19.4795 12.3647 19.4795H10.0972C9.54488 19.4795 9.09717 19.0318 9.09717 18.4795V15.9836Z" fill="#9C9C9C"/>
<path d="M3.09717 21.9836C3.09717 21.4313 3.54488 20.9836 4.09717 20.9836H6.36468C6.91697 20.9836 7.36468 21.4313 7.36468 21.9836V24.4795C7.36468 25.0318 6.91697 25.4795 6.36468 25.4795H4.09717C3.54488 25.4795 3.09717 25.0318 3.09717 24.4795V21.9836Z" fill="#9C9C9C"/>
<path d="M15.0972 21.9836C15.0972 21.4313 15.5449 20.9836 16.0972 20.9836H18.3647C18.917 20.9836 19.3647 21.4313 19.3647 21.9836V24.4795C19.3647 25.0318 18.917 25.4795 18.3647 25.4795H16.0972C15.5449 25.4795 15.0972 25.0318 15.0972 24.4795V21.9836Z" fill="#9C9C9C"/>
<path d="M9.09717 21.9836C9.09717 21.4313 9.54488 20.9836 10.0972 20.9836H12.3647C12.917 20.9836 13.3647 21.4313 13.3647 21.9836V24.4795C13.3647 25.0318 12.917 25.4795 12.3647 25.4795H10.0972C9.54488 25.4795 9.09717 25.0318 9.09717 24.4795V21.9836Z" fill="#9C9C9C"/>
<path d="M21.7382 18.4681L22.0706 22.7235L22.0484 24.4694L21.5657 26.41L21.4081 26.4223L20.5413 27.5057L19.5957 27.5795L18.4997 27.7595L16.766 27.8949L14.237 27.9981L13.8512 32.0646L17.4876 27.9971L21.1896 33.5965L20.9845 27.0897L26.2171 28.5393L22.2712 23.4011L26.2975 20.1262L21.7382 18.4681Z" fill="#F64C3C" stroke="#F64C3C"/>
</svg>
