<svg width="37" height="37" viewBox="0 0 37 37" fill="none" xmlns="http://www.w3.org/2000/svg">
<path d="M0 18.5C0 28.7173 8.28273 37 18.5 37C28.7173 37 37 28.7173 37 18.5C37 8.28273 28.7173 0 18.5 0C8.28273 0 0 8.28273 0 18.5Z" fill="white"/>
<path d="M3.91766 18.5C3.91766 26.5536 10.4464 33.0823 18.5 33.0823C26.5536 33.0823 33.0823 26.5536 33.0823 18.5C33.0823 10.4464 26.5536 3.91771 18.5 3.91771C10.4464 3.91771 3.91766 10.4464 3.91766 18.5Z" fill="#282979"/>
<path d="M8.74339 19.6847V18.4996C8.74339 13.0607 12.6501 9.06687 18.2995 9.04166V11.602C14.9459 11.6234 12.4618 13.4583 11.5749 17.1399H18.2995V19.6847H8.74339Z" fill="#97D2D4"/>
<path d="M9.50803 22.4662H12.5259C13.7369 24.369 16.1608 25.3854 18.2995 25.4048V27.9594C14.1386 27.94 10.8859 25.7986 9.50803 22.4662Z" fill="#97D2D4"/>
<path d="M21.4453 27.651C25.6179 26.2524 28.1098 22.858 28.1098 18.5693C28.1098 14.7248 25.942 11.3284 22.4506 9.70685L21.2221 12.3487C23.6713 13.4873 25.1948 15.8693 25.1948 18.5693C25.1948 21.5894 23.4908 23.8918 20.5196 24.8869L21.4473 27.649L21.4453 27.651Z" fill="#FBBA00"/>
</svg>
