<svg width="66" height="36" viewBox="0 0 66 36" fill="none" xmlns="http://www.w3.org/2000/svg">
<circle cx="18.5" cy="18.5" r="18.5" transform="matrix(0.880053 -0.474875 0.872183 0.48918 0.987793 17.5638)" fill="white"/>
<circle cx="14.5823" cy="14.5823" r="14.5823" transform="matrix(0.880053 -0.474875 0.872183 0.48918 7.85254 17.6199)" fill="#282979"/>
<path d="M43.0241 13.7749L41.9905 13.1951C37.2468 10.5345 30.3254 10.436 25.3315 13.1064L27.5647 14.3589C30.5346 12.7768 34.3212 12.4948 38.3127 13.8746L32.3946 17.0679L34.6142 18.3128L43.0241 13.7749Z" fill="#97D2D4"/>
<path d="M44.777 15.4986L42.1212 16.9317C42.715 18.4376 41.4683 20.0859 39.6031 21.111L41.8311 22.3606C45.476 20.3752 46.4708 17.7831 44.777 15.4986Z" fill="#97D2D4"/>
<path d="M38.7935 23.7036C33.9016 25.001 28.748 24.5238 25.0075 22.4259C21.6544 20.5452 20.5999 17.8543 22.2582 15.4031L25.6435 16.1121C24.4812 17.8321 25.2179 19.7208 27.5729 21.0416C30.2069 22.519 33.7146 22.8361 37.1974 21.9119L38.7901 23.7036L38.7935 23.7036Z" fill="#FBBA00"/>
</svg>
