<svg width="54" height="3" viewBox="0 0 54 3" fill="none" xmlns="http://www.w3.org/2000/svg">
<path d="M45.4457 0.698617C55.6556 1.08454 55.6579 1.76391 45.4506 2.21604C35.2433 2.66817 18.6919 2.72184 8.48192 2.33592C-1.72806 1.95 -1.73026 1.27062 8.47699 0.818495C18.6843 0.366366 35.2357 0.312695 45.4457 0.698617Z" fill="white"/>
<path d="M41.5319 0.871979C49.5797 1.17618 49.5814 1.71168 41.5357 2.06806C33.4901 2.42445 20.4437 2.46675 12.3958 2.16256C4.34798 1.85836 4.34624 1.32285 12.3919 0.966471C20.4376 0.610088 33.484 0.567783 41.5319 0.871979Z" fill="#282979"/>
<path d="M37.8947 1.13027L36.7104 1.08551C31.2754 0.880073 23.3816 0.902096 17.7125 1.15114L20.2711 1.24785C23.6427 1.10026 27.958 1.05964 32.5229 1.15945L25.8049 1.45702L28.348 1.55314L37.8947 1.13027Z" fill="#97D2D4"/>
<path d="M39.9103 1.26917L36.8954 1.40271C37.5871 1.52817 36.1812 1.67383 34.064 1.7692L36.6167 1.86569C40.7542 1.68083 41.8637 1.45601 39.9103 1.26917Z" fill="#97D2D4"/>
<path d="M33.1658 1.99325C27.5998 2.12507 21.7183 2.10712 17.4327 1.94513C13.591 1.79992 12.3626 1.57571 14.2302 1.35996L18.0974 1.40538C16.7884 1.55677 17.6467 1.71416 20.3448 1.81614C23.3628 1.93021 27.3658 1.94178 31.3285 1.84788L33.1619 1.99326L33.1658 1.99325Z" fill="#FBBA00"/>
</svg>
