<svg width="61" height="39" viewBox="0 0 61 39" fill="none" xmlns="http://www.w3.org/2000/svg">
<circle cx="18.5" cy="18.5" r="18.5" transform="matrix(0.950635 -0.31031 0.695525 0.718502 0 11.4815)" fill="white"/>
<circle cx="14.5823" cy="14.5823" r="14.5823" transform="matrix(0.950635 -0.31031 0.695525 0.718502 6.44922 13.0807)" fill="#282979"/>
<path d="M40.5533 16.8567L39.729 16.0052C35.9461 12.0973 29.4545 10.44 24.0664 12.175L25.8472 14.0146C29.0501 12.9893 32.6878 13.5369 36.0916 15.9068L29.6989 17.9936L31.4689 19.8221L40.5533 16.8567Z" fill="#97D2D4"/>
<path d="M41.7608 19.0925L38.8919 20.0289C39.0642 21.7719 37.4668 23.2544 35.4472 23.932L37.224 25.7674C41.166 24.4623 42.7687 21.9144 41.7608 19.0925Z" fill="#97D2D4"/>
<path d="M34.0192 26.522C29.0799 26.8119 24.3501 25.1463 21.3672 22.0648C18.6933 19.3026 18.3918 16.1896 20.5829 13.941L23.5883 15.458C22.0519 17.0361 22.2603 19.2203 24.1383 21.1603C26.2388 23.3302 29.4601 24.4558 32.9767 24.2487L34.016 26.5212L34.0192 26.522Z" fill="#FBBA00"/>
</svg>
