<svg width="51" height="15" viewBox="0 0 51 15" fill="none" xmlns="http://www.w3.org/2000/svg">
<path d="M43.5803 2.7184C53.4597 5.32428 53.4785 9.6195 43.6224 12.312C33.7663 15.0046 17.7675 15.0748 7.88818 12.4689C-1.99119 9.86304 -2.01005 5.56782 7.84606 2.87529C17.7022 0.182757 33.7009 0.112515 43.5803 2.7184Z" fill="white"/>
<path d="M39.8011 3.75081C47.5884 5.80486 47.6032 9.19049 39.8343 11.3128C32.0654 13.4352 19.4547 13.4905 11.6674 11.4365C3.88019 9.38245 3.86533 5.99682 11.6342 3.87448C19.4031 1.75214 32.0139 1.69677 39.8011 3.75081Z" fill="#282979"/>
<path d="M36.2915 5.32468L35.1456 5.02241C29.8865 3.63524 22.2562 3.64615 16.7821 5.1285L19.2578 5.78152C22.5135 4.9032 26.6841 4.71657 31.0994 5.4218L24.6125 7.19392L27.0732 7.84298L36.2915 5.32468Z" fill="#97D2D4"/>
<path d="M38.2434 6.23559L35.3322 7.03087C36.0039 7.83532 34.6484 8.73333 32.6041 9.30187L35.0742 9.95341C39.0693 8.85195 40.1363 7.44862 38.2434 6.23559Z" fill="#97D2D4"/>
<path d="M31.7414 10.7038C26.364 11.4467 20.678 11.2376 16.5312 10.1438C12.8138 9.16326 11.6209 7.72574 13.4209 6.39209L17.1605 6.74215C15.8988 7.67798 16.7323 8.68696 19.3431 9.3756C22.2633 10.1459 26.1333 10.2841 29.9617 9.75483L31.7376 10.7038L31.7414 10.7038Z" fill="#FBBA00"/>
</svg>
