<svg width="37" height="37" viewBox="0 0 37 37" fill="none" xmlns="http://www.w3.org/2000/svg">
<path d="M37 18.5C37 28.7173 28.7173 37 18.5 37C8.28273 37 0 28.7173 0 18.5C0 8.28273 8.28273 0 18.5 0C28.7173 0 37 8.28273 37 18.5Z" fill="white"/>
<path d="M33.0823 18.5C33.0823 26.5536 26.5536 33.0823 18.5 33.0823C10.4464 33.0823 3.91772 26.5536 3.91772 18.5C3.91772 10.4464 10.4464 3.91771 18.5 3.91771C26.5536 3.91771 33.0823 10.4464 33.0823 18.5Z" fill="#282979"/>
<path d="M28.2566 19.6847V18.4996C28.2566 13.0607 24.3499 9.06687 18.7005 9.04166V11.602C22.0541 11.6234 24.5382 13.4583 25.4251 17.1399H18.7005V19.6847H28.2566Z" fill="#97D2D4"/>
<path d="M27.492 22.4662H24.4741C23.2631 24.369 20.8392 25.3854 18.7005 25.4048V27.9594C22.8614 27.94 26.1141 25.7986 27.492 22.4662Z" fill="#97D2D4"/>
<path d="M15.5547 27.651C11.3821 26.2524 8.89022 22.858 8.89022 18.5693C8.89022 14.7248 11.058 11.3284 14.5494 9.70685L15.7779 12.3487C13.3287 13.4873 11.8052 15.8693 11.8052 18.5693C11.8052 21.5894 13.5092 23.8918 16.4804 24.8869L15.5527 27.649L15.5547 27.651Z" fill="#FBBA00"/>
</svg>
