<svg width="37" height="37" viewBox="0 0 37 37" fill="none" xmlns="http://www.w3.org/2000/svg">
<path d="M37 18.5C37 8.28273 28.7173 0 18.5 0C8.28273 0 0 8.28273 0 18.5C0 28.7173 8.28273 37 18.5 37C28.7173 37 37 28.7173 37 18.5Z" fill="white"/>
<path d="M33.0823 18.5C33.0823 10.4464 26.5536 3.91767 18.5 3.91767C10.4464 3.91767 3.91772 10.4464 3.91772 18.5C3.91772 26.5536 10.4464 33.0823 18.5 33.0823C26.5536 33.0823 33.0823 26.5536 33.0823 18.5Z" fill="#282979"/>
<path d="M28.2566 17.3153V18.5004C28.2566 23.9393 24.3499 27.9331 18.7005 27.9583V25.398C22.0541 25.3766 24.5382 23.5417 25.4251 19.8601H18.7005V17.3153H28.2566Z" fill="#97D2D4"/>
<path d="M27.492 14.5338H24.4741C23.2631 12.631 20.8392 11.6146 18.7005 11.5952V9.04063C22.8614 9.06003 26.1141 11.2014 27.492 14.5338Z" fill="#97D2D4"/>
<path d="M15.5547 9.34904C11.3821 10.7476 8.89022 14.142 8.89022 18.4307C8.89022 22.2752 11.058 25.6716 14.5494 27.2932L15.7779 24.6513C13.3287 23.5127 11.8052 21.1307 11.8052 18.4307C11.8052 15.4106 13.5092 13.1082 16.4804 12.1131L15.5527 9.35098L15.5547 9.34904Z" fill="#FBBA00"/>
</svg>
