<svg width="98" height="98" viewBox="0 0 98 98" fill="none" xmlns="http://www.w3.org/2000/svg">
<mask id="mask0_6098_42035" style="mask-type:alpha" maskUnits="userSpaceOnUse" x="0" y="0" width="98" height="98">
<rect width="98" height="98" fill="#D9D9D9"/>
</mask>
<g mask="url(#mask0_6098_42035)">
<path d="M49.2434 20.416C48.0858 20.416 47.1155 20.0247 46.3325 19.2421C45.5494 18.4594 45.1579 17.4896 45.1579 16.3327V8.16604C45.1579 7.00909 45.5494 6.0393 46.3325 5.25666C47.1155 4.47402 48.0858 4.0827 49.2434 4.0827C50.401 4.0827 51.3713 4.47402 52.1543 5.25666C52.9374 6.0393 53.3289 7.00909 53.3289 8.16604V16.3327C53.3289 17.4896 52.9374 18.4594 52.1543 19.2421C51.3713 20.0247 50.401 20.416 49.2434 20.416ZM69.4667 28.7869C68.7177 28.0383 68.3432 27.1025 68.3432 25.9796C68.3432 24.8567 68.7177 23.8869 69.4667 23.0702L75.1864 17.2515C76.0035 16.4348 76.9738 16.0265 78.0974 16.0265C79.2209 16.0265 80.1912 16.4348 81.0083 17.2515C81.7573 18.0001 82.1318 18.9528 82.1318 20.1098C82.1318 21.2667 81.7573 22.2195 81.0083 22.9681L75.1864 28.7869C74.4374 29.5355 73.4841 29.9098 72.3266 29.9098C71.169 29.9098 70.2157 29.5355 69.4667 28.7869ZM81.9275 53.0827C80.77 53.0827 79.7997 52.6914 79.0166 51.9087C78.2336 51.1261 77.842 50.1563 77.842 48.9994C77.842 47.8424 78.2336 46.8726 79.0166 46.09C79.7997 45.3074 80.77 44.916 81.9275 44.916H90.0986C91.2561 44.916 92.2264 45.3074 93.0095 46.09C93.7926 46.8726 94.1841 47.8424 94.1841 48.9994C94.1841 50.1563 93.7926 51.1261 93.0095 51.9087C92.2264 52.6914 91.2561 53.0827 90.0986 53.0827H81.9275ZM49.2434 93.916C48.0858 93.916 47.1155 93.5247 46.3325 92.7421C45.5494 91.9594 45.1579 90.9896 45.1579 89.8327V81.666C45.1579 80.5091 45.5494 79.5393 46.3325 78.7567C47.1155 77.974 48.0858 77.5827 49.2434 77.5827C50.401 77.5827 51.3713 77.974 52.1543 78.7567C52.9374 79.5393 53.3289 80.5091 53.3289 81.666V89.8327C53.3289 90.9896 52.9374 91.9594 52.1543 92.7421C51.3713 93.5247 50.401 93.916 49.2434 93.916ZM23.3004 28.7869L17.4785 23.0702C16.6614 22.2535 16.2529 21.2667 16.2529 20.1098C16.2529 18.9528 16.6614 18.0001 17.4785 17.2515C18.2275 16.5028 19.1808 16.1285 20.3384 16.1285C21.4959 16.1285 22.4492 16.5028 23.1982 17.2515L29.0201 23.0702C29.7691 23.8188 30.1436 24.7716 30.1436 25.9285C30.1436 27.0855 29.7691 28.0383 29.0201 28.7869C28.203 29.5355 27.2497 29.9098 26.1602 29.9098C25.0708 29.9098 24.1175 29.5355 23.3004 28.7869ZM75.1864 80.7473L69.4667 74.9285C68.7177 74.1119 68.3432 73.1421 68.3432 72.0192C68.3432 70.8962 68.7177 69.9605 69.4667 69.2119C70.2157 68.4632 71.152 68.089 72.2755 68.089C73.399 68.089 74.3693 68.4632 75.1864 69.2119L81.0083 74.9285C81.8254 75.6771 82.2169 76.6299 82.1829 77.7869C82.1488 78.9438 81.7573 79.9306 81.0083 80.7473C80.1912 81.5639 79.2039 81.9723 78.0463 81.9723C76.8887 81.9723 75.9354 81.5639 75.1864 80.7473ZM8.38825 53.0827C7.23069 53.0827 6.26038 52.6914 5.47732 51.9087C4.69426 51.1261 4.30273 50.1563 4.30273 48.9994C4.30273 47.8424 4.69426 46.8726 5.47732 46.09C6.26038 45.3074 7.23069 44.916 8.38825 44.916H16.5593C17.7168 44.916 18.6872 45.3074 19.4702 46.09C20.2533 46.8726 20.6448 47.8424 20.6448 48.9994C20.6448 50.1563 20.2533 51.1261 19.4702 51.9087C18.6872 52.6914 17.7168 53.0827 16.5593 53.0827H8.38825ZM17.4785 80.7473C16.7295 79.9987 16.355 79.0459 16.355 77.8889C16.355 76.732 16.7295 75.7792 17.4785 75.0306L23.3004 69.2119C24.0494 68.4632 24.9857 68.089 26.1092 68.089C27.2327 68.089 28.203 68.4632 29.0201 69.2119C29.8372 70.0285 30.2458 70.9983 30.2458 72.1212C30.2458 73.2442 29.8372 74.2139 29.0201 75.0306L23.3004 80.7473C22.4833 81.5639 21.4959 81.9723 20.3384 81.9723C19.1808 81.9723 18.2275 81.5639 17.4785 80.7473ZM49.2434 73.4994C42.4342 73.4994 36.6464 71.1174 31.88 66.3535C27.1135 61.5896 24.7303 55.8049 24.7303 48.9994C24.7303 42.1938 27.1135 36.4091 31.88 31.6452C36.6464 26.8813 42.4342 24.4994 49.2434 24.4994C56.0526 24.4994 61.8404 26.8813 66.6069 31.6452C71.3733 36.4091 73.7565 42.1938 73.7565 48.9994C73.7565 55.8049 71.3733 61.5896 66.6069 66.3535C61.8404 71.1174 56.0526 73.4994 49.2434 73.4994Z" fill="#FCB814"/>
</g>
</svg>
